<?xml version="1.0" standalone="no"?>
<!DOCTYPE svg PUBLIC "-//W3C//DTD SVG 20010904//EN"
 "http://www.w3.org/TR/2001/REC-SVG-20010904/DTD/svg10.dtd">
<svg version="1.0" xmlns="http://www.w3.org/2000/svg"
 width="1707.000000pt" height="576.000000pt" viewBox="0 0 1707.000000 576.000000"
 preserveAspectRatio="xMidYMid meet">

<g transform="translate(0.000000,576.000000) scale(0.100000,-0.100000)"
fill="#000000" stroke="none">
<path d="M4730 5701 l-95 -26 -8 -90 c-4 -50 -12 -100 -17 -113 -13 -30 -88
-64 -425 -192 -1126 -426 -1624 -629 -1971 -803 -210 -104 -257 -118 -526
-147 -99 -11 -246 -31 -326 -45 -254 -43 -452 -61 -762 -71 -113 -4 -208 -8
-212 -10 -4 -3 -30 -39 -57 -80 -57 -84 -65 -128 -31 -159 11 -10 25 -35 31
-54 10 -32 6 -50 -26 -146 l-37 -110 -6 -250 -5 -250 -44 -33 c-24 -19 -60
-58 -78 -87 -98 -152 -147 -457 -111 -678 11 -64 14 -126 10 -175 -4 -59 1
-110 20 -216 25 -138 26 -140 63 -169 71 -57 168 -162 226 -244 38 -54 71 -89
100 -106 157 -91 550 -168 1077 -211 261 -22 711 -48 750 -44 l33 3 -2 135
c-7 470 154 857 484 1161 170 156 425 285 695 351 39 9 123 12 290 11 215 -1
243 -4 332 -27 420 -108 754 -371 947 -746 160 -312 201 -596 145 -1009 -8
-58 -14 -111 -14 -119 0 -13 296 -14 2298 -8 1263 3 2657 9 3097 11 440 3
1200 6 1689 6 l888 0 -5 42 c-3 23 -12 74 -21 112 -21 95 -22 490 -1 587 23
110 73 246 136 368 195 378 541 651 956 756 103 26 120 27 343 27 259 -1 288
-5 471 -69 244 -85 429 -210 614 -416 192 -215 304 -450 355 -743 24 -136 10
-436 -26 -581 -7 -29 11 -32 131 -22 432 35 625 64 718 108 57 27 112 87 157
171 l33 62 -7 116 c-20 368 -20 354 12 581 59 416 63 546 21 755 -11 55 -33
128 -49 163 -112 242 -549 434 -1460 641 -1111 252 -1967 360 -3000 376 -388
6 -448 10 -500 31 -19 8 -96 55 -170 103 -374 245 -1609 924 -2014 1108 -253
115 -517 201 -821 267 -290 63 -787 126 -1140 143 -203 10 -1306 10 -1570 0
-180 -7 -847 -47 -1050 -63 l-81 -6 -92 52 c-114 65 -198 100 -237 99 -16 0
-73 -13 -125 -28z m2533 -329 c6 -8 73 -416 171 -1032 48 -297 62 -408 54
-417 -9 -11 -62 -12 -257 -8 -135 2 -408 7 -606 10 -198 3 -454 7 -570 10
-741 17 -705 15 -1100 35 -326 17 -586 42 -712 70 -111 25 -244 136 -324 270
l-44 75 0 155 c0 141 2 159 22 196 27 50 62 81 156 136 436 256 1300 436 2353
492 276 15 850 20 857 8z m777 -12 c209 -13 368 -32 595 -70 474 -78 849 -168
1035 -247 97 -42 372 -181 505 -256 218 -123 553 -341 629 -409 l41 -36 -80
-37 c-93 -43 -110 -56 -137 -108 -16 -33 -19 -59 -19 -163 l1 -124 -658 -2
c-844 -4 -1688 0 -1729 7 -30 5 -34 12 -72 108 -141 361 -421 1235 -421 1313
l0 34 73 0 c39 0 146 -5 237 -10z"/>
<path d="M3494 2760 c-566 -128 -966 -527 -1086 -1083 -31 -147 -31 -400 1
-541 114 -503 434 -865 913 -1034 114 -41 227 -62 368 -69 377 -19 745 119
1019 382 431 415 546 1019 300 1570 -33 75 -122 217 -182 293 -169 212 -437
387 -701 458 -171 46 -483 58 -632 24z m471 -371 c189 -33 379 -141 528 -299
112 -118 194 -265 239 -430 20 -74 23 -107 22 -255 -1 -188 -14 -258 -75 -397
-176 -402 -597 -649 -1019 -599 -294 35 -532 172 -709 406 -121 161 -181 335
-188 550 -7 198 21 333 105 500 136 271 446 497 736 534 74 10 279 4 361 -10z"/>
<path d="M3494 2201 c-96 -34 -194 -89 -194 -107 0 -17 270 -276 283 -271 19
6 27 111 21 260 l-6 137 -27 0 c-14 -1 -49 -9 -77 -19z"/>
<path d="M3916 2190 c-8 -42 -8 -229 0 -309 5 -41 11 -61 20 -61 7 0 75 60
151 134 125 123 136 136 123 152 -22 26 -191 103 -242 110 -44 6 -45 6 -52
-26z"/>
<path d="M4316 1740 c-92 -93 -136 -145 -134 -157 3 -16 21 -18 196 -21 l192
-3 0 31 c0 41 -97 290 -113 290 -2 0 -65 -63 -141 -140z"/>
<path d="M3042 1835 c-25 -32 -94 -203 -94 -234 0 -13 6 -27 13 -32 16 -10
321 -12 357 -3 12 4 22 13 22 21 0 16 -253 273 -269 273 -5 0 -18 -11 -29 -25z"/>
<path d="M3732 1698 c2 -28 7 -33 28 -33 21 0 25 5 25 30 0 25 -4 30 -28 33
-27 3 -28 1 -25 -30z"/>
<path d="M3714 1506 c-67 -29 -84 -103 -38 -163 51 -67 116 -67 165 -1 49 68
34 135 -37 164 -41 17 -50 17 -90 0z"/>
<path d="M3448 1433 c-18 -21 -14 -39 14 -54 37 -20 64 24 32 55 -20 20 -27
20 -46 -1z"/>
<path d="M4026 1434 c-34 -34 -7 -76 35 -54 21 12 25 40 7 58 -16 16 -23 15
-42 -4z"/>
<path d="M2940 1235 c0 -41 78 -231 115 -280 15 -18 21 -14 136 100 144 143
168 173 148 186 -8 5 -101 9 -206 9 -167 0 -193 -2 -193 -15z"/>
<path d="M4188 1243 c-10 -2 -18 -10 -18 -17 0 -17 266 -276 284 -276 25 0
139 270 121 289 -8 7 -362 12 -387 4z"/>
<path d="M3732 1118 c2 -25 8 -34 24 -36 14 -2 23 3 26 16 7 27 -9 52 -33 52
-17 0 -20 -6 -17 -32z"/>
<path d="M3441 863 c-78 -76 -141 -144 -141 -150 0 -24 280 -136 297 -120 13
14 10 384 -4 398 -9 9 -44 -21 -152 -128z"/>
<path d="M3916 953 c-8 -50 -8 -224 1 -302 l6 -63 36 7 c51 9 206 76 239 102
l27 22 -139 136 c-76 74 -144 135 -151 135 -7 0 -15 -17 -19 -37z"/>
<path d="M14288 2760 c-272 -57 -504 -184 -703 -384 -157 -158 -259 -315 -324
-499 -56 -159 -75 -280 -75 -477 0 -205 20 -321 85 -485 173 -444 547 -760
1020 -862 126 -27 409 -25 541 5 199 44 393 129 533 234 88 67 250 226 302
298 101 139 186 322 230 490 34 132 43 385 19 550 -47 315 -227 631 -476 833
-156 126 -362 234 -526 276 -172 44 -472 54 -626 21z m427 -364 c73 -6 172
-35 266 -80 188 -88 387 -284 482 -471 93 -187 122 -479 66 -691 -25 -98 -95
-246 -153 -328 -100 -139 -266 -272 -424 -340 -134 -57 -239 -79 -387 -80
-152 0 -252 18 -376 68 -102 41 -142 64 -236 134 -128 95 -212 198 -292 359
-87 173 -96 217 -95 443 0 182 2 201 27 283 101 329 361 585 693 682 101 29
228 35 429 21z"/>
<path d="M14274 2196 c-81 -30 -168 -80 -172 -98 -3 -18 265 -281 281 -275 19
6 31 174 21 289 l-9 103 -30 2 c-16 1 -57 -8 -91 -21z"/>
<path d="M14710 2061 c0 -171 7 -251 22 -251 17 0 278 265 278 283 0 9 -20 28
-44 42 -55 32 -199 85 -231 85 l-25 0 0 -159z"/>
<path d="M13838 1838 c-32 -58 -84 -184 -93 -227 -5 -24 -3 -36 6 -42 16 -10
332 -12 367 -3 12 4 22 12 22 20 0 7 -62 77 -138 155 l-138 143 -26 -46z"/>
<path d="M15110 1733 c-72 -71 -130 -136 -130 -145 0 -24 30 -28 213 -28 143
0 169 2 174 16 14 38 -80 271 -115 282 -7 2 -71 -54 -142 -125z"/>
<path d="M14529 1714 c-17 -21 0 -49 32 -49 30 0 38 33 13 52 -23 17 -29 16
-45 -3z"/>
<path d="M14514 1506 c-43 -19 -64 -53 -64 -102 0 -79 73 -130 144 -100 37 15
76 67 76 99 0 36 -32 85 -65 101 -40 19 -51 19 -91 2z"/>
<path d="M14252 1438 c-23 -23 -7 -68 25 -68 7 0 17 9 23 21 9 16 8 25 -6 40
-20 22 -26 23 -42 7z"/>
<path d="M14826 1434 c-20 -19 -20 -38 -1 -54 18 -15 55 -4 55 16 0 20 -19 54
-30 54 -5 0 -16 -7 -24 -16z"/>
<path d="M13745 1213 c9 -52 58 -172 90 -222 33 -53 33 -52 182 92 125 121
143 145 122 158 -8 5 -101 9 -208 9 l-193 0 7 -37z"/>
<path d="M14988 1243 c-10 -2 -18 -9 -18 -15 0 -18 264 -279 279 -276 9 2 25
21 38 43 27 49 78 179 88 223 l7 32 -189 -1 c-103 -1 -196 -3 -205 -6z"/>
<path d="M14532 1141 c-18 -11 -12 -41 10 -55 24 -15 53 13 43 43 -7 22 -30
27 -53 12z"/>
<path d="M14238 861 l-143 -143 26 -22 c47 -41 259 -120 275 -103 13 13 10
385 -3 398 -9 9 -44 -21 -155 -130z"/>
<path d="M14716 944 c-3 -26 -6 -114 -6 -196 0 -124 3 -150 15 -155 29 -10
272 88 290 117 8 13 -260 280 -280 280 -7 0 -15 -19 -19 -46z"/>
</g>
</svg>
